<?xml version="1.0" standalone="no"?>
<!DOCTYPE svg PUBLIC "-//W3C//DTD SVG 20010904//EN"
 "http://www.w3.org/TR/2001/REC-SVG-20010904/DTD/svg10.dtd">
<svg version="1.0" xmlns="http://www.w3.org/2000/svg"
 width="900.000000pt" height="700.000000pt" viewBox="0 0 900.000000 700.000000"
 preserveAspectRatio="xMidYMid meet">

<g transform="translate(0.000000,700.000000) scale(0.100000,-0.100000)"
fill="#000000" stroke="none">
<path d="M4370 6775 c-137 -92 -391 -337 -482 -465 -77 -109 -208 -319 -241
-389 -18 -36 -33 -68 -34 -70 -2 -2 -49 41 -106 96 -109 106 -269 230 -432
334 -130 82 -380 208 -473 238 -72 24 -74 24 -93 5 -26 -27 -124 -267 -164
-404 -58 -202 -105 -481 -105 -631 0 -38 -3 -69 -6 -69 -4 0 -35 18 -70 40
-259 163 -852 372 -1018 358 -60 -5 -63 -16 -42 -185 74 -612 152 -912 333
-1296 31 -65 53 -120 51 -123 -3 -2 -34 7 -69 20 -95 36 -318 92 -444 113 -80
12 -168 17 -321 18 -233 0 -244 -3 -244 -60 0 -33 12 -54 130 -215 38 -52 106
-160 151 -240 174 -310 236 -411 351 -572 167 -236 223 -304 382 -467 145
-147 256 -240 361 -303 115 -69 460 -226 565 -257 86 -26 346 -81 381 -81 19
0 8 -30 -13 -35 -81 -19 -272 -37 -444 -42 -218 -7 -375 5 -503 38 -75 19
-111 24 -111 14 0 -44 179 -246 327 -369 257 -214 482 -330 808 -416 117 -31
421 -39 567 -15 81 13 302 77 386 112 6 2 12 -2 12 -10 0 -30 53 -176 100
-274 71 -150 159 -271 295 -409 134 -135 258 -244 279 -244 22 0 325 306 393
395 131 174 239 365 274 483 14 47 20 49 74 27 20 -9 103 -32 183 -53 147 -36
148 -36 367 -37 174 0 237 4 302 18 280 60 503 166 770 366 148 110 392 381
393 435 0 11 -43 3 -112 -23 -108 -40 -326 -51 -616 -31 -129 9 -326 40 -340
54 -11 12 11 19 166 51 320 67 687 224 880 377 306 242 585 587 863 1066 87
151 171 282 342 537 75 113 83 144 40 172 -42 27 -340 24 -523 -6 -178 -29
-395 -83 -466 -115 -31 -15 -59 -24 -62 -22 -2 3 19 58 48 123 164 374 255
739 312 1241 25 221 23 234 -28 240 -136 17 -675 -162 -990 -328 l-91 -48 -7
132 c-13 272 -69 505 -190 800 -69 168 -78 178 -148 155 -23 -7 -93 -40 -157
-72 -345 -174 -568 -325 -757 -513 l-92 -91 -47 91 c-64 120 -160 266 -258
390 -159 201 -461 476 -523 476 -7 0 -35 -16 -64 -35z m79 -109 c15 -8 51 -34
80 -59 l53 -44 -1 -192 c-3 -247 5 -328 30 -334 11 -3 21 -2 24 3 3 4 7 105 9
224 2 119 6 220 9 223 3 3 30 -21 60 -53 43 -46 53 -63 46 -76 -5 -10 -8 -128
-7 -265 l3 -248 28 -3 27 -3 0 247 0 247 33 -40 c17 -22 53 -65 80 -95 53 -62
57 -75 25 -80 l-23 -3 0 -213 c0 -178 2 -214 15 -222 39 -25 40 -18 40 213 0
257 -5 252 91 77 29 -52 67 -122 85 -155 l33 -60 -103 -158 -103 -158 -27 41
c-75 113 -341 382 -455 459 l-64 44 -33 -18 c-76 -41 -289 -233 -386 -350 -90
-107 -142 -159 -146 -146 -2 7 -48 79 -102 159 l-99 147 24 25 c12 14 33 45
45 70 13 25 46 83 75 130 29 47 60 101 70 120 10 19 50 73 89 120 l71 85 5
-245 5 -245 28 -3 27 -3 0 243 c0 209 -2 247 -16 267 -16 22 -15 24 47 87 35
35 67 64 71 64 4 0 8 -96 8 -214 0 -206 1 -215 20 -221 11 -3 24 -3 30 0 16
10 13 448 -2 463 -10 10 2 28 63 87 42 41 80 75 83 75 4 0 19 -6 35 -14z
m-1691 -336 c288 -140 585 -355 735 -530 146 -171 205 -256 275 -396 l30 -60
-55 -85 c-30 -46 -84 -145 -119 -219 -102 -216 -119 -249 -125 -250 -3 0 -26
17 -50 38 -150 130 -571 357 -829 447 -74 26 -168 59 -207 73 l-73 27 0 40 c1
278 113 763 210 916 17 25 30 51 30 57 0 23 37 11 178 -58z m3544 -7 c115
-244 188 -562 188 -820 l0 -132 -27 -14 c-16 -8 -80 -31 -143 -52 -229 -74
-746 -351 -915 -490 l-45 -37 -21 49 c-62 144 -179 367 -225 431 l-53 73 20
47 c68 158 181 313 373 510 158 163 317 273 604 419 101 51 188 93 195 93 7 0
29 -35 49 -77z m-1800 -538 c98 -80 254 -237 343 -345 95 -114 222 -305 278
-415 43 -87 127 -290 127 -309 0 -6 -56 -66 -124 -133 -68 -67 -156 -163 -197
-212 -41 -52 -77 -87 -82 -82 -4 4 -12 108 -17 231 -4 125 -12 226 -18 232 -5
5 -19 7 -30 4 -19 -6 -19 -15 -15 -264 4 -189 9 -265 19 -286 13 -27 12 -31
-20 -70 -19 -22 -48 -65 -66 -93 -17 -29 -36 -53 -41 -53 -5 0 -9 184 -9 449
0 247 -3 456 -6 465 -8 21 -16 20 -42 -5 l-22 -20 6 -477 c3 -307 9 -485 16
-499 12 -25 5 -48 -77 -233 -25 -57 -55 -136 -67 -175 -11 -38 -23 -74 -26
-78 -9 -17 -23 12 -47 99 -13 49 -45 139 -71 199 -26 61 -46 121 -44 135 7 76
9 1036 2 1062 -8 33 -36 58 -49 44 -4 -4 -8 -228 -8 -496 -1 -269 -4 -492 -7
-495 -3 -4 -23 24 -44 62 -20 37 -53 89 -71 115 l-34 47 21 29 c21 29 22 36
18 305 -3 242 -5 278 -20 293 -10 10 -23 14 -34 10 -15 -6 -16 -26 -11 -249 4
-133 3 -262 -1 -287 l-8 -45 -34 49 c-63 88 -99 129 -247 278 l-146 146 23 64
c62 171 220 450 337 595 126 157 435 462 469 463 5 0 40 -25 76 -55z m-3187
-107 c32 -9 45 -17 45 -30 0 -25 47 -114 110 -213 65 -101 258 -492 388 -785
180 -406 250 -554 348 -731 227 -407 354 -570 617 -788 179 -149 153 -100 -72
132 -174 180 -269 308 -428 577 -64 107 -223 424 -290 575 -56 125 -177 399
-233 525 -136 308 -319 625 -400 694 -38 31 -38 31 58 6 159 -41 498 -186 630
-268 45 -29 106 -63 135 -76 146 -64 213 -241 287 -751 57 -398 134 -681 250
-920 178 -366 356 -588 674 -838 97 -76 95 -78 -30 -33 -139 50 -260 109 -359
176 -38 26 -87 53 -109 60 -86 28 -409 269 -507 378 -28 32 -67 84 -86 117
-20 33 -59 94 -87 135 -140 208 -380 696 -536 1085 -57 143 -319 687 -368 765
-19 30 -49 73 -67 95 -34 42 -65 97 -65 115 0 13 39 13 95 -2z m6295 8 c0 -17
-28 -71 -74 -140 -65 -98 -258 -480 -354 -701 -93 -213 -169 -394 -203 -480
-59 -152 -212 -460 -310 -627 -150 -253 -260 -388 -429 -522 -277 -221 -487
-348 -725 -439 -49 -19 -115 -45 -145 -57 -30 -12 -53 -20 -50 -17 3 3 37 29
76 58 108 83 318 276 378 349 57 70 161 230 257 395 133 230 218 509 289 950
67 420 97 537 184 721 40 84 50 97 98 127 102 66 268 149 395 198 155 61 404
149 420 149 7 0 -19 -46 -56 -102 -120 -182 -304 -541 -402 -787 -117 -293
-350 -783 -464 -976 -123 -209 -262 -391 -429 -558 -144 -145 -167 -172 -116
-137 241 166 418 362 608 674 100 166 255 485 411 851 119 276 182 414 274
595 55 107 115 227 134 265 28 55 80 148 100 174 4 6 106 40 121 41 6 0 12 -2
12 -4z m-35 -308 c-39 -188 -52 -226 -112 -325 -52 -86 -95 -180 -183 -403
-95 -240 -218 -520 -297 -676 -47 -96 -126 -194 -280 -354 -86 -88 -112 -91
-46 -4 93 122 265 447 374 707 28 67 70 165 94 217 25 52 85 190 134 306 87
205 271 586 314 651 32 47 32 23 2 -119z m-6299 85 c46 -71 233 -446 304 -608
293 -669 373 -835 530 -1105 115 -197 132 -230 122 -230 -12 0 -136 137 -243
270 -80 99 -137 198 -190 332 -10 26 -41 92 -68 146 -27 55 -68 142 -89 193
-22 52 -56 129 -76 172 -20 43 -59 135 -87 205 -76 187 -127 294 -154 322 -18
19 -30 59 -54 170 -17 80 -34 155 -36 168 -8 35 1 27 41 -35z m1355 -327 c570
-212 1073 -598 1367 -1051 188 -289 328 -667 372 -1000 12 -93 18 -480 8 -490
-20 -21 -145 129 -203 245 -75 150 -122 285 -150 430 -8 46 -19 88 -24 93 -5
5 -21 7 -37 5 -42 -4 -41 -27 5 -178 74 -238 146 -398 245 -540 25 -35 44 -66
42 -67 -2 -2 -23 -1 -47 3 -51 8 -91 45 -169 161 -66 98 -104 174 -157 318
-64 172 -93 305 -100 462 -5 118 -8 133 -25 139 -34 11 -48 -13 -48 -85 0
-292 134 -684 318 -931 18 -24 29 -46 23 -48 -18 -6 -86 36 -127 80 -135 143
-229 327 -298 585 -40 148 -55 244 -60 398 l-3 110 -31 3 c-23 2 -32 -2 -37
-17 -12 -37 15 -314 40 -417 56 -232 153 -469 233 -570 21 -27 44 -59 51 -72
11 -20 10 -21 -14 -12 -73 28 -115 66 -182 170 -104 159 -173 339 -225 585
-26 126 -31 176 -34 315 -1 91 -3 169 -3 173 -1 5 -13 7 -28 5 -26 -3 -29 -7
-34 -58 -14 -117 20 -428 67 -606 22 -85 100 -280 145 -362 49 -89 33 -85 -62
15 -102 108 -166 252 -227 508 -40 164 -54 315 -50 525 l3 165 -32 3 c-28 3
-33 -1 -39 -24 -9 -36 3 -420 16 -509 14 -98 75 -337 109 -428 16 -43 28 -77
26 -77 -2 0 -26 28 -54 63 -86 109 -128 200 -171 370 -58 231 -70 331 -70 590
0 140 -4 228 -10 232 -5 3 -10 15 -10 26 0 26 -26 24 -34 -3 -10 -38 -7 -478
4 -568 6 -47 22 -141 36 -209 14 -68 22 -126 19 -129 -3 -3 -9 5 -12 18 -4 14
-24 59 -46 100 -119 225 -215 549 -278 933 -59 367 -100 554 -144 660 -4 9 -5
17 -2 17 2 0 69 -24 148 -54z m3749 49 c0 -4 -7 -20 -16 -37 -45 -87 -104
-324 -134 -536 -20 -144 -69 -418 -96 -537 -35 -155 -163 -482 -219 -557 l-17
-23 6 25 c35 138 82 460 89 615 3 55 2 138 -1 185 -6 77 -9 85 -29 88 -20 3
-22 -2 -27 -70 -3 -40 -8 -136 -11 -213 -12 -304 -99 -710 -185 -860 -33 -58
-135 -170 -121 -133 5 13 18 46 29 74 36 90 100 374 116 516 9 75 16 200 16
278 l0 140 -29 0 c-38 0 -40 -7 -39 -165 1 -179 -32 -412 -83 -599 -40 -144
-50 -174 -99 -281 -41 -91 -87 -151 -150 -198 -34 -26 -66 -47 -71 -47 -4 0 3
17 17 38 71 102 159 315 194 467 29 126 61 349 67 478 l6 117 -31 0 c-17 0
-34 -5 -37 -10 -4 -6 -11 -83 -16 -173 -5 -89 -19 -214 -30 -277 -44 -238
-159 -524 -272 -675 -43 -57 -61 -73 -101 -88 -54 -19 -67 -16 -44 10 29 33
123 197 161 279 74 166 158 527 161 694 l1 95 -32 3 c-39 4 -39 2 -47 -143
-11 -195 -70 -443 -149 -625 -41 -96 -47 -107 -107 -213 -52 -92 -122 -163
-181 -182 -28 -10 -53 -14 -56 -11 -3 3 10 23 28 43 81 90 185 296 245 486 64
201 95 464 60 510 -14 18 -32 24 -21 7 3 -5 2 -10 -3 -10 -14 0 -30 -79 -36
-180 -11 -154 -80 -408 -148 -544 -55 -109 -139 -236 -191 -289 -42 -43 -62
-55 -105 -65 -80 -18 -81 -16 -22 41 96 94 252 404 301 596 32 131 24 170 -38
174 l-28 2 -6 -101 c-4 -69 -15 -127 -34 -185 -32 -101 -142 -326 -189 -390
-34 -46 -143 -145 -151 -138 -2 3 0 132 5 287 9 248 13 298 36 400 91 409 297
796 598 1124 232 254 433 401 826 606 218 113 440 202 440 177z m-5024 -213
c55 -148 156 -385 318 -745 36 -81 66 -153 66 -160 -1 -6 -21 10 -46 37 -28
31 -64 90 -95 155 -28 58 -55 114 -60 124 -5 10 -32 70 -60 133 -67 154 -123
323 -154 466 -26 122 -31 165 -13 113 6 -16 26 -72 44 -123z m6149 13 c-8 -70
-41 -186 -98 -350 -96 -277 -195 -480 -266 -550 l-52 -50 27 65 c14 36 35 85
46 110 12 25 34 74 50 110 57 125 236 576 257 648 26 87 46 97 36 17z m-6642
-746 c117 -13 322 -55 422 -86 102 -32 304 -133 373 -186 30 -22 106 -104 170
-181 149 -180 246 -281 352 -369 47 -38 114 -98 150 -132 149 -143 437 -351
615 -445 44 -23 132 -71 195 -105 128 -71 179 -93 325 -141 137 -45 296 -102
302 -107 5 -6 -40 -37 -77 -54 -14 -6 -65 -30 -113 -53 -128 -59 -166 -67
-210 -47 -19 9 -81 33 -137 53 -316 110 -683 353 -950 631 -231 239 -348 386
-577 724 -72 107 -148 210 -167 228 -35 34 -36 35 -36 10 0 -30 29 -82 167
-295 276 -429 573 -764 888 -1005 169 -129 462 -286 645 -345 94 -31 110 -39
90 -45 -14 -4 -51 -15 -84 -25 l-59 -18 -48 27 c-26 15 -92 43 -146 63 -205
74 -427 223 -688 461 -235 214 -454 478 -695 838 -62 94 -143 213 -179 265
-36 52 -87 128 -113 168 -27 39 -53 72 -58 72 -4 0 -15 3 -24 6 -27 10 -18
-22 25 -93 110 -180 374 -580 496 -753 178 -250 525 -601 765 -773 121 -86
311 -197 416 -242 50 -21 92 -43 92 -47 0 -4 -30 -8 -67 -8 -94 1 -206 49
-418 181 -302 188 -559 430 -838 790 -103 133 -157 210 -370 531 -199 299
-334 470 -375 476 -36 5 -26 -19 44 -112 36 -49 151 -217 254 -374 320 -487
489 -709 709 -932 188 -189 334 -309 516 -420 82 -50 43 -50 -86 -1 -130 51
-240 118 -349 213 -108 95 -399 407 -483 518 -191 253 -318 436 -453 652 -70
113 -210 313 -251 358 -52 58 -142 135 -149 127 -12 -12 29 -79 109 -179 47
-59 102 -136 123 -170 21 -35 65 -106 99 -158 34 -52 94 -147 135 -210 65
-102 235 -338 342 -475 53 -68 170 -200 308 -347 110 -117 113 -121 65 -93
-185 106 -455 383 -661 675 -107 153 -260 393 -324 510 -136 248 -157 284
-222 371 -38 50 -68 93 -68 95 0 6 171 -5 283 -17z m7407 16 c0 -3 -24 -38
-54 -77 -30 -39 -96 -141 -147 -227 -51 -86 -128 -217 -172 -291 -192 -324
-435 -651 -598 -805 -81 -77 -270 -221 -334 -255 -36 -19 -33 -16 25 36 233
207 524 573 807 1016 132 207 243 372 330 492 38 52 53 86 38 86 -50 0 -150
-127 -428 -542 -317 -473 -482 -689 -712 -927 -202 -209 -350 -314 -532 -378
-149 -52 -197 -56 -98 -9 334 160 761 620 1194 1291 68 105 133 204 144 220
93 130 197 293 197 307 0 27 -23 21 -57 -14 -43 -46 -218 -280 -238 -318 -61
-118 -416 -613 -591 -825 -211 -255 -365 -398 -619 -572 -66 -46 -138 -96
-160 -113 -61 -46 -227 -100 -330 -107 -56 -4 -85 -2 -85 4 0 6 55 34 123 63
347 149 594 334 886 665 186 211 303 366 513 680 37 55 84 123 103 150 50 69
173 287 181 320 6 23 4 26 -12 23 -17 -3 -52 -49 -167 -220 -266 -396 -430
-625 -565 -785 -133 -159 -375 -404 -477 -485 -167 -132 -378 -254 -577 -332
-123 -49 -156 -53 -243 -32 l-50 12 85 28 c317 105 688 340 931 591 213 220
351 393 567 714 119 176 232 366 232 388 0 3 -21 -15 -46 -39 -55 -52 -109
-125 -269 -363 -378 -563 -745 -907 -1212 -1136 -99 -49 -224 -105 -277 -124
l-96 -34 -67 20 c-165 51 -367 159 -296 159 26 0 285 89 443 153 125 50 240
114 532 294 202 125 729 603 901 817 105 131 208 214 360 291 180 91 329 136
577 175 107 16 340 27 340 15z m-3165 -1685 c-16 -11 -39 -20 -49 -20 -25 0
-13 12 27 27 48 17 55 15 22 -7z m-1090 -90 c10 -33 -40 -106 -144 -211 -137
-137 -264 -238 -382 -304 -127 -72 -207 -103 -379 -148 -182 -48 -241 -58
-405 -65 l-140 -7 0 -25 0 -25 155 1 c172 1 261 14 461 69 159 44 238 77 367
154 134 79 197 129 308 243 91 92 224 256 237 292 6 15 14 18 48 13 22 -3 44
-8 47 -12 10 -9 -39 -94 -111 -195 -70 -96 -229 -265 -327 -345 -153 -126
-348 -215 -608 -280 -128 -32 -182 -53 -182 -71 0 -19 87 -19 182 1 290 61
537 183 730 360 132 123 249 275 344 452 41 76 52 83 110 67 20 -5 15 -16 -64
-167 -46 -89 -101 -188 -123 -221 -21 -32 -39 -60 -39 -62 0 -3 13 2 29 10 70
36 165 186 211 331 33 106 31 103 42 70 10 -35 3 -112 -17 -177 -33 -111 -156
-301 -274 -424 -140 -146 -363 -260 -636 -325 -88 -21 -124 -24 -295 -24 -113
0 -231 6 -280 13 -173 27 -424 127 -597 238 -66 42 -333 254 -333 265 0 4 109
5 243 2 234 -5 246 -4 352 20 61 14 173 37 250 52 248 47 587 142 755 212 52
22 129 53 170 69 52 20 102 51 165 101 95 76 120 86 130 53z m976 -61 c184
-123 298 -170 622 -259 100 -27 207 -56 237 -65 131 -36 442 -105 525 -116
107 -14 290 -17 435 -7 l105 8 -55 -50 c-204 -187 -386 -301 -633 -396 -148
-58 -234 -74 -422 -80 -240 -8 -453 25 -665 105 -76 28 -239 120 -305 171
-117 91 -228 229 -309 385 -42 82 -46 95 -46 162 0 40 4 73 9 73 4 0 23 -34
41 -76 61 -139 218 -348 311 -415 l29 -20 -11 28 c-6 15 -16 35 -23 43 -17 20
-98 136 -157 225 -25 39 -71 122 -103 185 -52 105 -55 116 -39 128 37 27 50
14 144 -140 131 -214 281 -381 437 -487 173 -117 343 -186 602 -246 117 -27
240 -30 240 -5 0 14 -64 38 -135 51 -114 19 -369 96 -443 133 -108 55 -252
144 -324 203 -132 108 -271 275 -364 441 l-35 62 27 10 c15 6 30 9 34 8 4 -2
60 -67 124 -145 143 -174 227 -252 370 -347 163 -107 190 -121 336 -171 217
-74 372 -107 537 -113 78 -2 150 -1 160 3 10 5 22 9 27 9 18 2 17 25 -1 34
-10 5 -72 12 -137 16 -66 4 -158 14 -205 22 -158 28 -431 113 -543 169 -69 36
-326 227 -384 287 -67 69 -204 237 -204 250 0 4 15 8 34 8 26 0 63 -19 157
-81z m-530 -430 c128 -179 172 -232 247 -299 56 -49 80 -76 74 -84 -5 -6 -13
-119 -17 -251 -10 -349 -11 -355 -34 -384 -12 -14 -31 -41 -44 -58 -12 -18
-26 -33 -32 -33 -7 0 -10 148 -10 423 0 346 -3 427 -14 441 -35 42 -38 9 -43
-472 l-6 -468 -54 -57 -55 -58 -6 398 c-4 219 -7 473 -7 564 0 138 -3 168 -15
173 -8 3 -21 -2 -30 -10 -13 -13 -15 -84 -17 -537 -1 -287 -1 -537 0 -554 1
-18 -1 -33 -3 -33 -2 0 -28 22 -57 49 l-53 49 -3 419 c-3 416 -7 539 -22 563
-5 7 -16 9 -30 5 l-22 -7 4 -454 c1 -250 0 -454 -4 -454 -8 0 -71 77 -86 105
-6 11 -15 160 -22 335 -6 172 -15 319 -20 325 -6 7 22 41 80 98 61 61 112 124
165 207 42 66 80 120 85 120 4 0 27 -28 51 -61z m-428 -664 l6 -280 -50 100
c-48 99 -119 297 -119 334 0 13 26 38 78 74 42 29 78 53 78 53 1 -1 4 -127 7
-281z m888 213 c43 -29 79 -58 79 -64 0 -35 -150 -374 -165 -374 -2 0 -4 110
-3 245 1 135 4 245 6 245 2 0 39 -24 83 -52z"/>
<path d="M4413 6623 c-10 -3 -13 -57 -13 -218 0 -117 3 -220 6 -229 3 -9 16
-16 29 -16 22 0 22 2 29 188 8 246 -1 296 -51 275z"/>
<path d="M3887 6103 c-9 -8 -9 -345 -1 -395 6 -32 11 -38 30 -38 l24 0 0 214
c0 186 -2 215 -16 220 -20 8 -29 8 -37 -1z"/>
<path d="M2577 6323 c-18 -18 0 -91 72 -295 43 -123 91 -261 106 -308 30 -95
145 -398 171 -454 14 -29 23 -36 46 -36 15 0 28 5 28 11 0 6 -18 57 -41 112
-49 120 -145 388 -233 647 -35 102 -73 210 -85 241 -21 56 -52 95 -64 82z"/>
<path d="M2760 6263 c0 -37 67 -234 252 -748 78 -217 174 -415 208 -432 35
-18 37 2 7 74 -102 242 -155 375 -193 485 -79 228 -203 562 -226 607 -30 59
-48 64 -48 14z"/>
<path d="M2980 6145 c0 -63 21 -122 256 -720 128 -328 182 -435 220 -435 27 0
16 39 -56 200 -28 63 -73 174 -100 245 -88 238 -229 593 -254 642 -14 26 -34
59 -45 73 l-21 25 0 -30z"/>
<path d="M2488 6059 c-24 -13 -23 -18 11 -113 17 -45 62 -173 102 -286 39
-113 84 -233 100 -267 24 -54 32 -63 54 -63 23 0 25 3 19 28 -4 15 -26 77 -49
137 -23 61 -73 202 -110 315 -62 189 -91 260 -105 260 -3 0 -13 -5 -22 -11z"/>
<path d="M3226 5953 c15 -71 16 -74 89 -248 25 -60 82 -200 126 -309 90 -225
106 -256 131 -256 29 0 22 40 -31 173 -26 67 -70 178 -96 247 -49 128 -197
431 -220 450 -10 8 -10 -4 1 -57z"/>
<path d="M2412 5718 c3 -24 23 -91 45 -149 63 -165 72 -179 101 -160 10 6 2
41 -38 162 -61 182 -65 189 -92 189 -18 0 -20 -4 -16 -42z"/>
<path d="M6248 6293 c-27 -31 -43 -72 -133 -328 -48 -137 -119 -331 -158 -430
-123 -314 -123 -315 -81 -315 21 0 29 9 51 58 51 115 156 392 223 587 37 110
84 242 104 294 36 90 43 141 20 148 -6 2 -17 -4 -26 -14z"/>
<path d="M6056 6267 c-14 -18 -54 -116 -90 -218 -35 -101 -85 -238 -111 -304
-26 -66 -60 -156 -75 -200 -15 -44 -64 -167 -110 -273 -45 -106 -79 -200 -76
-208 9 -24 41 0 72 51 62 107 290 687 373 951 39 123 62 234 48 234 -3 0 -17
-15 -31 -33z"/>
<path d="M5812 6107 c-12 -13 -29 -47 -38 -77 -25 -83 -143 -396 -271 -718
-92 -231 -115 -297 -106 -310 26 -42 35 -25 189 340 41 97 74 179 74 182 0 4
33 93 74 199 80 208 116 322 116 374 0 39 -9 41 -38 10z"/>
<path d="M6320 6045 c-7 -8 -34 -81 -60 -162 -26 -82 -66 -195 -88 -253 -21
-58 -53 -142 -71 -188 -38 -102 -40 -135 -9 -130 18 2 32 23 65 98 23 52 54
131 69 175 14 44 41 116 59 160 18 44 38 105 45 135 7 30 23 79 36 109 13 29
21 57 18 62 -8 14 -50 10 -64 -6z"/>
<path d="M5556 5903 c-14 -21 -40 -78 -59 -128 -19 -49 -65 -166 -102 -260
-128 -322 -134 -339 -124 -357 25 -46 45 -13 140 227 28 72 69 175 91 230 71
180 98 260 98 293 0 42 -14 41 -44 -5z"/>
<path d="M6402 5743 c-20 -17 -122 -283 -122 -317 0 -10 9 -16 26 -16 21 0 29
9 49 55 35 78 95 253 95 276 0 24 -21 24 -48 2z"/>
<path d="M4380 5561 c-38 -72 59 -129 109 -65 21 27 20 35 -7 67 -21 24 -88
23 -102 -2z"/>
<path d="M4398 5340 c-9 -6 -19 -24 -23 -41 -5 -24 -2 -36 16 -55 27 -29 52
-31 79 -4 53 53 -8 137 -72 100z"/>
<path d="M4393 5108 c-6 -8 -6 -154 -1 -378 4 -201 7 -545 6 -766 -1 -220 2
-406 6 -412 4 -7 14 -12 21 -12 39 0 40 19 42 795 1 413 -1 758 -4 768 -5 20
-56 24 -70 5z"/>
<path d="M3853 4685 c-11 -29 3 -171 19 -194 14 -20 16 -20 29 -5 20 24 26
193 8 205 -22 14 -49 10 -56 -6z"/>
<path d="M4956 4654 c-3 -9 -6 -51 -6 -94 0 -82 13 -109 46 -96 14 5 16 18 10
89 -4 45 -9 90 -12 100 -7 21 -30 22 -38 1z"/>
<path d="M1600 5561 c0 -19 40 -102 76 -158 66 -104 174 -315 271 -528 182
-404 218 -482 326 -695 60 -118 137 -262 171 -320 35 -58 81 -136 104 -175 65
-111 181 -254 256 -317 38 -32 71 -56 74 -54 5 6 -67 114 -118 176 -172 210
-431 684 -667 1220 -111 253 -128 288 -211 455 -87 174 -160 294 -216 353 -35
38 -66 58 -66 43z"/>
<path d="M1880 5416 c0 -4 52 -111 116 -239 64 -127 175 -360 246 -516 124
-276 248 -496 256 -457 5 25 -15 78 -83 226 -35 74 -115 250 -180 390 -152
332 -164 355 -243 485 -49 81 -73 111 -90 113 -12 2 -22 1 -22 -2z"/>
<path d="M7156 5513 c-67 -72 -228 -385 -392 -763 -269 -622 -457 -977 -684
-1285 -89 -121 -69 -129 40 -17 86 88 217 276 280 402 23 47 45 90 50 95 44
55 251 487 410 855 95 221 160 354 260 535 76 139 89 168 80 185 -14 25 -13
25 -44 -7z"/>
<path d="M6873 5353 c-89 -150 -168 -311 -283 -578 -85 -195 -176 -399 -202
-450 -34 -67 -43 -105 -25 -105 8 0 21 8 29 18 23 26 80 130 112 202 16 36 46
101 66 145 21 44 57 125 80 180 23 55 98 215 167 355 68 140 122 263 121 274
-6 38 -26 26 -65 -41z"/>
<path d="M2832 4724 c-43 -30 -16 -94 41 -94 25 0 57 31 57 55 0 18 -39 55
-58 55 -10 0 -28 -7 -40 -16z"/>
<path d="M3066 4589 c-35 -28 -36 -80 -1 -114 13 -14 29 -25 34 -25 51 0 98
60 82 103 -22 58 -68 73 -115 36z"/>
<path d="M5936 4721 c-24 -26 -17 -60 16 -84 23 -17 33 -19 55 -11 35 12 51
53 35 89 -9 20 -19 25 -50 25 -26 0 -45 -7 -56 -19z"/>
<path d="M5710 4584 c-23 -27 -16 -75 14 -101 33 -28 46 -29 80 -2 32 25 36
77 8 102 -23 21 -85 22 -102 1z"/>
<path d="M2090 3408 c0 -59 281 -358 518 -551 80 -66 311 -214 442 -284 116
-63 520 -197 520 -173 0 3 -13 19 -29 34 -20 19 -73 43 -177 77 -366 122 -682
329 -1014 664 -186 187 -260 254 -260 233z"/>
<path d="M6688 3362 c-37 -31 -136 -129 -220 -216 -192 -200 -423 -377 -658
-504 -83 -45 -277 -126 -385 -162 -82 -26 -146 -60 -139 -72 17 -27 131 3 369
97 167 66 235 102 387 204 238 160 375 281 549 482 66 76 179 230 167 229 -2
-1 -33 -27 -70 -58z"/>
<path d="M3635 2250 c-181 -122 -225 -144 -406 -204 -170 -56 -291 -86 -458
-111 -104 -16 -134 -31 -105 -52 41 -30 198 -9 439 58 146 40 209 64 330 123
146 72 152 76 242 170 51 53 89 96 85 96 -4 0 -61 -36 -127 -80z"/>
<path d="M5189 2223 c15 -28 50 -55 141 -110 102 -61 163 -89 290 -131 222
-74 508 -116 539 -79 11 15 10 18 -14 27 -15 6 -82 19 -149 30 -131 21 -372
89 -501 140 -44 17 -126 56 -181 86 -108 57 -142 67 -125 37z"/>
<path d="M4389 417 c-69 -46 -39 -147 44 -147 37 0 59 19 76 63 14 35 -6 78
-44 95 -35 16 -37 16 -76 -11z"/>
</g>
</svg>
