<?xml version="1.0" standalone="no"?>
<!DOCTYPE svg PUBLIC "-//W3C//DTD SVG 20010904//EN"
 "http://www.w3.org/TR/2001/REC-SVG-20010904/DTD/svg10.dtd">
<svg version="1.0" xmlns="http://www.w3.org/2000/svg"
 width="425.000000pt" height="425.000000pt" viewBox="0 0 425.000000 425.000000"
 preserveAspectRatio="xMidYMid meet">

<g transform="translate(0.000000,425.000000) scale(0.100000,-0.100000)"
fill="#9D6C4E">
<path d="M1547 4184 c-3 -10 -9 -35 -12 -54 -4 -19 -18 -82 -32 -140 -30 -123
-37 -299 -14 -363 7 -21 11 -40 9 -41 -1 -2 -45 2 -97 7 -105 11 -216 1 -313
-30 l-58 -18 39 -85 c22 -47 41 -92 43 -101 2 -11 -24 -38 -74 -76 -370 -284
-609 -681 -695 -1153 -21 -119 -24 -439 -5 -550 41 -233 120 -464 212 -619 20
-35 25 -55 22 -84 -2 -20 1 -50 7 -65 10 -23 8 -36 -9 -75 -27 -61 -19 -94 27
-114 19 -7 44 -11 55 -7 11 3 44 9 74 13 l53 8 46 -47 46 -47 -30 -48 c-33
-52 -47 -115 -36 -164 l7 -32 35 53 c20 29 53 65 74 80 l39 28 63 -51 c83 -67
215 -148 329 -202 651 -311 1425 -204 1965 272 281 247 474 567 568 938 41
165 57 457 35 643 -21 173 -80 379 -151 527 -21 45 -39 85 -39 88 0 10 -79
140 -98 161 -9 10 -24 32 -32 48 -36 71 -298 346 -348 366 -20 9 -22 16 -20
54 2 24 6 42 9 40 4 -2 6 12 5 32 -2 27 -10 40 -37 58 -60 40 -100 50 -191 50
-49 0 -88 1 -88 3 0 1 7 31 15 66 9 40 14 103 12 168 -2 85 2 112 17 147 10
23 24 42 30 42 21 1 -49 33 -84 39 -19 3 -78 5 -130 5 -84 -1 -103 -4 -160
-31 -36 -17 -86 -49 -112 -72 -27 -24 -48 -37 -49 -29 0 16 4 242 5 285 1 18
4 35 7 38 4 3 4 16 2 29 -5 22 -8 23 -36 15 -84 -24 -184 -86 -258 -159 -72
-72 -142 -173 -155 -225 -10 -41 -20 -37 -57 23 -54 87 -127 159 -220 214 -72
43 -130 81 -145 96 -7 6 -17 12 -22 12 -5 0 -16 12 -23 27 -13 24 -15 25 -20
7z m873 -76 c-21 -48 -40 -171 -40 -257 0 -122 -38 -253 -101 -351 -21 -32
-34 -62 -31 -67 4 -4 -5 3 -20 15 -14 13 -29 36 -33 50 -6 23 -11 12 -31 -63
-13 -49 -29 -112 -36 -140 -6 -27 -13 -51 -14 -53 -5 -8 -63 37 -111 86 -38
40 -50 59 -46 75 2 12 11 56 18 97 47 269 132 436 282 558 50 41 144 92 170
92 8 0 6 -13 -7 -42z m-675 -90 c120 -79 171 -130 220 -220 l37 -68 -26 -107
c-14 -60 -26 -132 -27 -161 -1 -29 -5 -55 -9 -57 -4 -2 -31 18 -60 45 -30 28
-55 50 -56 50 -1 0 -5 -13 -9 -30 -8 -38 -21 -38 -76 2 -45 32 -145 81 -190
91 -23 6 -27 14 -39 75 -18 97 -9 244 24 377 15 60 30 113 33 118 2 4 21 -5
41 -21 20 -16 82 -58 137 -94z m706 21 c-4 -35 -9 -107 -10 -159 -3 -202 -27
-307 -98 -443 -21 -40 -39 -73 -39 -75 -4 -7 -44 23 -49 37 -3 7 0 20 6 27 6
8 9 14 6 14 -3 0 5 12 20 28 69 74 122 256 123 419 0 58 23 193 36 215 12 19
14 -1 5 -63z m470 -115 l37 -6 -24 -36 c-29 -42 -38 -75 -58 -209 -20 -133
-64 -247 -114 -296 -21 -21 -41 -35 -44 -32 -16 16 81 225 104 225 4 0 0 8 -9
18 -10 11 -21 17 -25 15 -5 -2 -8 0 -8 5 0 5 -27 15 -60 22 -71 15 -149 8
-222 -20 -29 -11 -53 -18 -55 -16 -7 6 19 151 30 171 6 11 10 24 9 28 -1 5 2
6 7 3 5 -4 16 2 23 12 26 35 98 85 150 103 54 19 185 25 259 13z m16 -216 c-6
-129 -24 -210 -56 -250 -31 -37 -36 -13 -14 60 24 76 39 144 48 217 18 139 29
124 22 -27z m-175 -113 c14 -6 8 -16 -36 -59 -63 -61 -100 -130 -127 -234 -64
-254 -114 -349 -218 -415 -25 -15 -31 -16 -31 -4 0 8 6 20 14 26 8 7 22 41 31
76 30 109 13 198 -57 302 -15 23 -28 44 -28 47 0 3 14 25 30 50 17 25 44 74
60 109 28 62 31 65 87 85 32 12 67 23 78 26 26 7 175 0 197 -9z m-1261 -46
c90 -23 215 -82 267 -127 l31 -27 -56 -170 c-47 -143 -57 -185 -61 -261 -2
-55 0 -99 7 -111 5 -11 8 -23 5 -26 -18 -18 -195 90 -271 166 -44 43 -126 149
-145 187 -13 25 -25 47 -28 50 -3 3 -7 14 -8 25 -2 11 -8 22 -13 23 -5 2 -9
10 -9 18 0 20 -38 92 -61 117 -10 12 -19 25 -19 31 0 5 -2 7 -5 4 -5 -5 57
-145 116 -261 40 -80 95 -151 170 -222 78 -74 101 -91 207 -145 76 -40 113
-73 98 -87 -8 -9 -122 34 -199 75 -60 32 -221 152 -203 152 4 0 -4 11 -18 23
-14 13 -23 27 -19 30 3 4 1 7 -5 7 -7 0 -12 5 -12 11 0 6 -13 30 -30 54 -16
24 -30 49 -30 55 0 7 -6 26 -14 43 -8 18 -22 56 -31 84 -9 29 -20 55 -25 58
-5 3 -7 12 -3 21 3 8 -2 34 -11 58 -9 24 -16 48 -14 52 1 5 -2 18 -8 29 -23
45 -13 59 51 71 102 20 251 17 346 -7z m1224 -92 c-25 -54 -54 -170 -55 -215
0 -42 -42 -196 -66 -244 -13 -26 -44 -72 -69 -102 -25 -32 -40 -58 -34 -61 13
-9 32 8 75 66 48 66 82 153 108 281 25 121 33 133 132 204 80 57 130 74 218
73 77 -1 116 -12 162 -46 l29 -22 -26 -28 c-38 -40 -58 -84 -85 -182 -29 -109
-71 -186 -133 -244 -56 -53 -112 -83 -233 -125 l-87 -31 -77 15 c-45 8 -82 21
-89 30 -10 15 -16 14 -56 -11 -57 -36 -190 -97 -197 -90 -3 2 3 22 12 42 14
31 31 45 88 73 155 77 201 149 273 426 13 50 34 113 48 141 26 51 76 117 83
110 3 -2 -7 -29 -21 -60z m-708 -175 c213 -207 228 -233 228 -387 0 -84 -4
-107 -22 -141 -34 -63 -94 -109 -168 -129 -76 -21 -120 -16 -211 23 -59 26
-64 30 -88 85 -14 32 -25 60 -25 64 1 3 -5 9 -11 13 -9 5 -13 42 -13 116 0
105 1 114 50 259 28 83 56 170 63 195 13 54 18 70 22 70 2 0 80 -75 175 -168z
m250 66 c94 -128 117 -179 117 -263 0 -44 -7 -85 -18 -110 -20 -46 -65 -115
-76 -115 -4 0 -10 28 -14 63 -11 99 -41 168 -101 235 -37 42 -44 60 -34 92 4
14 18 60 30 103 12 42 25 77 28 77 4 0 34 -37 68 -82z m938 -48 c-4 -11 -15
-67 -25 -123 -40 -228 -108 -320 -308 -421 -71 -36 -73 -36 -105 -20 -62 32
-62 35 14 61 108 36 167 70 226 129 60 59 115 165 134 256 6 29 18 67 26 83
27 52 50 74 38 35z m-2019 -161 c4 -12 -14 -23 -78 -49 -169 -66 -273 -140
-373 -266 -30 -37 -55 -72 -55 -76 0 -5 19 -8 43 -8 50 0 123 -33 191 -85 156
-119 224 -145 399 -152 l128 -6 -24 -26 c-110 -117 -160 -327 -118 -501 15
-62 73 -194 89 -204 6 -4 30 14 54 40 47 51 105 84 193 109 117 34 192 87 269
187 52 70 81 132 106 233 12 50 24 91 25 93 5 5 128 -204 188 -318 71 -135
140 -290 133 -297 -3 -3 -17 6 -32 20 -35 35 -103 67 -143 67 -105 0 -187 -65
-220 -175 -24 -83 -51 -105 -129 -105 -46 0 -111 16 -122 29 -3 4 -29 22 -59
41 -96 61 -220 53 -302 -19 -33 -29 -56 -40 -94 -45 -133 -19 -187 -48 -290
-155 -33 -34 -89 -81 -125 -103 -35 -23 -72 -50 -82 -62 -25 -30 -22 -70 7
-104 14 -17 25 -35 25 -41 0 -6 -37 -48 -83 -93 -46 -46 -90 -94 -98 -107
l-15 -24 -21 34 c-78 127 -155 337 -195 529 -20 101 -23 143 -23 340 0 257 16
361 85 564 111 330 316 624 575 827 113 90 105 90 138 1 15 -42 30 -84 33 -93z
m2229 -70 c287 -300 452 -668 487 -1085 36 -438 -90 -866 -361 -1229 -58 -78
-220 -244 -296 -304 -80 -63 -223 -161 -235 -161 -14 0 -13 34 5 180 43 362
113 661 229 991 65 187 73 202 93 194 43 -16 111 -23 153 -15 25 5 48 9 52 10
4 0 23 14 43 31 28 25 33 34 24 46 -9 11 -8 18 8 36 32 35 51 79 62 144 10 62
4 146 -9 138 -7 -4 -31 83 -31 115 -1 40 15 129 22 125 4 -3 11 -55 14 -115 8
-122 25 -139 25 -25 0 52 -6 90 -21 127 -11 29 -18 63 -16 76 2 12 2 20 -1 17
-3 -3 -12 18 -19 47 -15 60 -62 158 -75 158 -5 0 -7 4 -4 9 8 13 -20 21 -31
10 -6 -6 -28 -12 -49 -13 -74 -6 -214 -93 -304 -189 -112 -121 -164 -251 -158
-397 1 -50 1 -90 -3 -90 -3 0 -11 6 -18 13 -11 10 -13 4 -8 -31 10 -85 85
-156 190 -183 26 -6 47 -14 47 -17 0 -2 -20 -58 -45 -123 -90 -236 -172 -542
-220 -819 -19 -112 -55 -409 -55 -462 0 -36 -3 -39 -61 -69 -45 -22 -64 -27
-69 -19 -4 7 -11 62 -15 124 -6 99 -13 169 -45 423 -18 144 -51 350 -72 443
-29 132 -29 148 -1 176 12 13 23 29 23 36 0 18 75 66 124 79 23 6 67 8 102 4
56 -6 64 -4 83 16 25 27 26 54 7 100 -23 55 -47 70 -126 79 -45 5 -78 14 -90
25 -11 10 -20 14 -20 9 0 -5 -5 -2 -10 6 -5 8 -9 39 -8 68 0 43 -3 56 -23 72
-36 32 -62 33 -140 5 -41 -15 -81 -29 -90 -32 -12 -3 -22 10 -39 49 -68 158
-117 258 -208 423 -28 50 -49 91 -47 93 2 2 33 -19 68 -47 91 -71 217 -129
314 -143 64 -9 98 -8 194 5 64 10 146 17 182 17 53 0 67 3 67 15 0 8 -4 15 -8
15 -4 0 -6 15 -4 34 5 43 -49 238 -83 304 -14 27 -39 61 -55 77 -17 16 -30 32
-30 36 0 4 28 20 62 36 106 47 214 147 260 238 16 32 40 123 59 218 l11 58 56
-50 c31 -27 93 -86 137 -132z m-2162 -46 c98 -150 186 -211 467 -325 25 -10
25 -11 -15 -27 -119 -51 -346 -70 -490 -41 -67 14 -281 110 -270 122 6 6 -58
34 -95 42 -14 3 -42 1 -62 -3 -47 -11 -49 1 -8 48 16 18 27 38 23 45 -3 6 -3
8 2 4 4 -4 32 13 63 38 30 25 74 56 98 70 53 31 203 94 226 94 10 0 35 -28 61
-67z m1307 -249 c123 -15 251 -77 304 -147 39 -53 55 -91 86 -212 38 -146 38
-152 0 -157 -16 -2 -31 0 -33 5 -1 5 -77 13 -167 18 -234 13 -292 29 -397 109
-29 22 -53 38 -53 36 0 -4 -55 48 -152 141 -21 20 -38 39 -38 42 1 12 99 67
200 111 58 25 114 51 125 58 11 6 31 10 45 7 14 -2 50 -7 80 -11z m-1593 -62
c131 -85 256 -122 416 -122 79 0 235 22 260 36 7 4 9 4 5 0 -3 -4 -42 -28 -85
-54 l-78 -46 -130 0 c-143 -1 -205 13 -300 64 -29 16 -57 26 -61 22 -5 -4 -6
-3 -2 2 9 11 -109 100 -169 127 -24 11 -43 23 -43 26 0 3 24 3 54 1 45 -4 69
-14 133 -56z m906 -101 c53 -23 57 -27 57 -58 0 -57 -30 -184 -61 -258 -16
-38 -52 -100 -80 -138 -53 -70 -97 -106 -189 -152 -78 -39 -130 -85 -165 -144
-16 -28 -34 -51 -38 -51 -5 0 -25 35 -45 78 -37 77 -37 77 -37 212 0 130 2
138 33 212 39 90 90 151 168 203 74 50 264 127 294 121 3 -1 31 -12 63 -25z
m272 -77 c98 -91 191 -166 250 -202 81 -49 145 -63 308 -69 81 -3 147 -9 147
-13 0 -10 -147 -30 -225 -30 -51 0 -92 8 -150 28 -76 27 -235 117 -282 160
-12 11 -24 17 -27 14 -3 -3 -6 -1 -6 4 0 6 -9 20 -20 32 -12 12 -18 22 -14 22
3 0 -17 23 -45 51 -28 29 -48 56 -45 60 12 21 43 4 109 -57z m-147 -66 c-7
-140 -28 -217 -85 -307 -74 -117 -148 -175 -288 -224 -55 -19 -109 -38 -120
-42 -17 -7 -17 -5 5 19 14 15 61 46 105 69 104 53 208 155 252 247 45 93 60
142 80 258 15 88 20 102 37 102 18 0 19 -6 14 -122z m1589 10 c31 -88 44 -264
22 -304 -16 -31 -41 -32 -36 -1 7 42 -10 192 -32 280 -18 71 -20 91 -10 103
17 21 27 7 56 -78z m-1443 -87 c46 -75 108 -184 139 -241 59 -111 157 -323
157 -340 0 -12 -40 -13 -55 -2 -5 4 -11 16 -13 27 -7 39 -89 215 -97 208 -4
-5 -5 -3 -1 4 6 12 -66 156 -91 181 -7 7 -13 18 -13 24 0 13 -71 132 -82 136
-4 2 -8 9 -8 16 0 7 -11 22 -25 34 -20 17 -25 31 -25 68 0 40 2 45 15 34 8 -7
53 -74 99 -149z m1366 77 c31 -115 43 -201 38 -279 l-4 -68 -80 -83 c-91 -94
-151 -175 -137 -189 4 -4 34 27 68 73 53 72 194 208 216 208 4 0 11 -17 15
-37 3 -21 12 -65 19 -98 21 -95 4 -158 -64 -228 -38 -40 -116 -70 -211 -81
l-45 -5 -1 82 c0 53 -5 81 -11 80 -6 -1 -24 14 -39 35 -15 20 -33 40 -38 44
-6 4 -8 8 -4 8 4 0 1 17 -6 38 -18 50 -11 187 16 312 12 52 21 105 22 117 0
11 4 19 9 16 4 -2 7 5 7 16 0 13 19 31 59 55 62 38 119 65 137 66 7 0 22 -37
34 -82z m-289 -155 c-11 -48 -22 -126 -25 -172 -3 -54 -10 -89 -20 -100 -27
-30 -66 -126 -66 -163 0 -45 -6 -46 -43 -13 -25 24 -27 31 -27 114 0 110 23
190 83 287 45 72 107 148 115 140 2 -3 -5 -44 -17 -93z m-22 -358 c6 -19 30
-58 52 -87 21 -29 42 -68 45 -88 3 -19 8 -42 10 -50 11 -43 -32 -49 -97 -12
-68 38 -79 47 -75 59 3 7 0 15 -6 19 -6 4 -8 24 -4 51 6 46 44 143 55 143 4 0
13 -16 20 -35z m-934 -106 c17 -10 43 -32 58 -49 38 -40 74 -39 182 5 109 45
173 55 191 30 34 -46 1 -128 -85 -210 -42 -40 -52 -65 -26 -65 8 0 15 3 15 8
1 4 27 36 60 72 l59 65 23 -21 c30 -28 80 -44 134 -44 48 0 77 -21 94 -65 11
-28 -1 -70 -22 -77 -15 -5 -96 28 -115 48 -21 20 -78 27 -117 14 -44 -14 -69
-46 -131 -167 -45 -89 -91 -143 -120 -143 -29 0 -62 20 -106 63 -42 40 -99 67
-99 46 0 -5 -6 -6 -14 -3 -26 10 -46 -25 -46 -81 0 -47 -3 -56 -28 -73 -15
-11 -46 -23 -67 -27 -68 -11 -89 -24 -123 -74 -67 -98 -180 -181 -246 -181
-41 0 -88 24 -126 65 -67 70 -151 98 -210 68 -28 -15 -39 -29 -56 -78 l-22
-60 -63 3 c-35 2 -73 1 -86 -3 -32 -8 -53 -55 -53 -118 l0 -54 -128 -5 c-128
-5 -129 -5 -229 -52 -143 -67 -196 -60 -178 24 8 36 70 94 119 110 20 6 34 15
31 20 -7 11 -66 -3 -98 -25 -21 -14 -28 -14 -31 -4 -2 8 -6 22 -9 31 -14 42
15 89 121 199 l107 111 73 6 c39 2 72 8 72 13 0 15 -44 20 -95 10 -45 -9 -52
-7 -74 12 -31 29 -40 57 -28 84 14 32 147 113 185 113 38 0 51 17 21 29 -22 8
-21 9 26 60 106 113 289 154 458 101 74 -23 67 -22 67 -9 0 12 -60 39 -99 44
-42 5 -81 17 -81 24 0 12 68 50 111 61 63 17 117 5 197 -45 93 -58 146 -72
218 -56 61 14 88 40 105 105 6 22 17 52 24 66 49 94 173 132 260 79z m819 -41
c20 -27 32 -48 26 -48 -15 0 -80 69 -80 86 0 24 14 14 54 -38z m476 -112 c-18
-16 -75 -36 -103 -36 -30 0 -12 12 46 31 66 21 75 22 57 5z m-276 -35 c3 -5
-8 -42 -24 -82 -120 -291 -229 -751 -276 -1164 -15 -135 -23 -164 -46 -165 -7
0 -7 8 18 225 35 318 98 614 189 890 38 115 98 276 111 297 7 11 22 10 28 -1z
m-467 -132 c28 -11 27 -11 -35 -34 -35 -13 -72 -31 -82 -40 -17 -16 -20 -16
-25 -2 -24 62 61 108 142 76z m-186 -151 c-11 -23 -18 -45 -15 -50 3 -4 -2 -5
-10 -2 -20 8 -21 5 11 67 14 29 28 46 30 39 3 -7 -4 -31 -16 -54z m-338 -49
c12 -7 43 -31 69 -55 34 -32 56 -44 78 -44 39 0 38 -8 -4 -47 -42 -38 -79
-108 -100 -189 -14 -54 -36 -86 -69 -97 -7 -2 -1 -15 18 -33 52 -49 133 -219
181 -379 32 -106 86 -364 78 -376 -11 -18 -37 -4 -41 21 -31 227 -127 537
-184 598 -10 12 -19 25 -19 30 0 5 -21 28 -46 52 -51 47 -47 47 -164 5 -68
-24 -84 -26 -170 -21 -304 19 -319 19 -393 1 -92 -22 -189 -66 -309 -142 -123
-78 -133 -81 -103 -37 20 29 24 47 23 107 0 90 16 153 43 168 15 7 35 7 72 -1
45 -9 54 -8 76 8 13 10 30 38 38 64 30 103 124 103 229 1 71 -68 104 -77 274
-74 87 1 159 -3 203 -13 45 -9 67 -10 64 -3 -7 22 -75 36 -189 36 -111 1 -146
11 -97 26 33 11 97 73 140 137 33 48 46 59 82 68 23 7 62 19 87 29 l45 17 0
-70 c1 -70 22 -136 45 -136 15 0 12 21 -6 42 -13 14 -18 46 -21 147 -5 164 7
193 70 160z m341 -195 c34 -175 70 -434 95 -681 25 -247 26 -282 6 -290 -9 -3
-18 -4 -20 -1 -3 2 -11 80 -20 174 -32 358 -53 511 -111 803 -24 118 -24 124
-7 136 25 18 27 13 57 -141z m-80 29 c41 -183 96 -564 116 -803 6 -74 13 -152
15 -172 5 -35 3 -39 -27 -51 -65 -27 -88 -29 -88 -9 0 35 -70 336 -97 417 -33
101 -74 191 -126 279 -28 47 -37 71 -29 74 14 4 42 65 42 91 0 39 63 147 113
193 29 26 55 48 59 48 3 0 13 -30 22 -67z m-280 -412 c70 -96 118 -218 164
-421 27 -118 46 -229 40 -235 -17 -17 -192 -35 -343 -35 -261 -1 -470 40 -700
135 -131 55 -319 166 -395 233 -19 17 -37 29 -41 26 -4 -2 -9 3 -12 10 -6 16
5 24 238 163 261 156 363 181 600 148 142 -20 211 -14 315 29 66 26 80 21 134
-53z m-1158 -44 c11 -11 -7 -65 -29 -85 -28 -26 -147 -74 -147 -60 0 6 8 20
17 30 12 14 17 36 17 76 l-1 58 69 -7 c37 -3 71 -9 74 -12z m-169 -19 c20 -16
16 -41 -4 -33 -10 4 -46 9 -80 12 -35 3 -63 9 -63 14 0 12 81 28 110 22 14 -2
31 -9 37 -15z m-54 -47 c21 -5 41 -12 44 -14 7 -7 -29 -67 -40 -67 -13 0 -77
66 -77 79 0 13 22 14 73 2z m157 -85 c0 -2 -28 -22 -63 -44 -35 -23 -82 -61
-105 -86 -22 -24 -43 -41 -46 -38 -29 29 51 118 136 150 50 20 78 26 78 18z"/>
<path d="M2147 1588 c-22 -86 -15 -347 8 -355 6 -2 10 65 10 187 0 177 -5 222
-18 168z"/>
<path d="M2398 1553 c-27 -50 -78 -171 -78 -184 0 -5 7 -6 15 -3 8 4 15 11 15
16 0 6 19 49 42 97 41 84 52 121 38 121 -4 0 -18 -21 -32 -47z"/>
<path d="M1770 1554 c0 -3 53 -58 118 -122 66 -65 138 -143 162 -174 23 -32
50 -58 59 -58 9 0 12 3 6 8 -6 4 -23 26 -39 50 -16 23 -33 42 -39 42 -6 0 -8
3 -4 6 3 4 -6 19 -21 34 -15 15 -34 36 -43 46 -9 11 -52 54 -97 97 -71 68
-102 90 -102 71z"/>
<path d="M1627 1274 c-16 -16 -4 -22 60 -28 81 -8 204 -48 257 -82 25 -17 42
-22 48 -16 22 22 -133 93 -242 112 -36 6 -76 13 -90 16 -14 2 -29 2 -33 -2z"/>
<path d="M1377 1110 c-142 -14 -267 -42 -267 -58 0 -10 7 -13 23 -8 110 30
206 40 387 40 107 1 221 -3 253 -7 73 -11 77 7 5 23 -69 15 -302 21 -401 10z"/>
<path d="M2020 1021 c0 -15 172 -93 183 -82 7 7 -18 24 -73 51 -84 40 -110 48
-110 31z"/>
</g>
</svg>
